<svg width="16" height="19" viewBox="0 0 16 19" fill="none" xmlns="http://www.w3.org/2000/svg">
<g filter="url(#filter0_dd_9_43)">
<path d="M8.66675 9.43333V7.33333C8.66675 7.14444 8.60286 6.98611 8.47508 6.85833C8.3473 6.73056 8.18897 6.66667 8.00008 6.66667C7.81119 6.66667 7.65286 6.73056 7.52508 6.85833C7.3973 6.98611 7.33341 7.14444 7.33341 7.33333V9.43333L6.73341 8.85C6.61119 8.72778 6.45841 8.66667 6.27508 8.66667C6.09175 8.66667 5.93341 8.73333 5.80008 8.86667C5.67786 8.98889 5.61675 9.14444 5.61675 9.33333C5.61675 9.52222 5.67786 9.67778 5.80008 9.8L7.53341 11.5333C7.66675 11.6667 7.8223 11.7333 8.00008 11.7333C8.17786 11.7333 8.33342 11.6667 8.46675 11.5333L10.2001 9.8C10.3223 9.67778 10.3862 9.525 10.3917 9.34167C10.3973 9.15833 10.3334 9 10.2001 8.86667C10.0779 8.74444 9.92508 8.68056 9.74175 8.675C9.55842 8.66944 9.40008 8.72778 9.26675 8.85L8.66675 9.43333ZM4.00008 15.3333C3.63341 15.3333 3.31953 15.2028 3.05841 14.9417C2.7973 14.6806 2.66675 14.3667 2.66675 14L2.66675 6.55C2.66675 6.37222 2.70008 6.20278 2.76675 6.04167C2.83341 5.88056 2.92786 5.73889 3.05008 5.61667L6.28341 2.38333C6.40564 2.26111 6.5473 2.16667 6.70841 2.1C6.86953 2.03333 7.03897 2 7.21675 2L12.0001 2C12.3667 2 12.6806 2.13056 12.9417 2.39167C13.2029 2.65278 13.3334 2.96667 13.3334 3.33333V14C13.3334 14.3667 13.2029 14.6806 12.9417 14.9417C12.6806 15.2028 12.3667 15.3333 12.0001 15.3333H4.00008Z" fill="#E17038"/>
<path d="M11.9998 1.5C12.5001 1.5 12.9415 1.68395 13.2957 2.03809C13.6496 2.39211 13.8337 2.83289 13.8337 3.33301V14C13.8337 14.5002 13.6496 14.9408 13.2957 15.2949C12.9415 15.6491 12.5001 15.833 11.9998 15.833H3.99976C3.49956 15.8329 3.05889 15.649 2.70483 15.2949C2.35081 14.9408 2.16675 14.5003 2.16675 14L2.16675 6.5498C2.16677 6.30788 2.21227 6.0734 2.30444 5.85059C2.39601 5.62931 2.52695 5.4318 2.69604 5.2627L5.92944 2.0293C6.09855 1.8602 6.29605 1.72926 6.51733 1.6377C6.74015 1.54552 6.97463 1.50002 7.21655 1.5L11.9998 1.5ZM7.99976 7.16699C7.93701 7.16705 7.90799 7.18258 7.87866 7.21191C7.84933 7.24125 7.83379 7.27026 7.83374 7.33301V10.6172L6.98511 9.79199L6.38452 9.20898L6.37964 9.20312C6.35743 9.18099 6.33446 9.167 6.27515 9.16699C6.22859 9.16699 6.19661 9.17815 6.15405 9.2207C6.1348 9.23996 6.117 9.26347 6.11694 9.33301C6.11694 9.40283 6.13476 9.427 6.15405 9.44629L7.88745 11.1797C7.93308 11.2253 7.96345 11.2334 7.99976 11.2334C8.03625 11.2334 8.06718 11.2255 8.11304 11.1797L9.84644 9.44629C9.8727 9.42001 9.89038 9.39073 9.89233 9.32617C9.89353 9.28522 9.88509 9.25942 9.84644 9.2207C9.82015 9.19442 9.7909 9.17676 9.72632 9.1748C9.67229 9.17321 9.64117 9.18526 9.6062 9.2168L9.01538 9.79199L8.16675 10.6172V7.33301C8.16669 7.27038 8.15105 7.24119 8.12183 7.21191C8.09244 7.18253 8.06273 7.16699 7.99976 7.16699Z" stroke="white"/>
</g>
<defs>
<filter id="filter0_dd_9_43" x="0.666748" y="0" width="14.6667" height="18.3334" filterUnits="userSpaceOnUse" color-interpolation-filters="sRGB">
<feFlood flood-opacity="0" result="BackgroundImageFix"/>
<feColorMatrix in="SourceAlpha" type="matrix" values="0 0 0 0 0 0 0 0 0 0 0 0 0 0 0 0 0 0 127 0" result="hardAlpha"/>
<feOffset dy="1"/>
<feGaussianBlur stdDeviation="0.5"/>
<feComposite in2="hardAlpha" operator="out"/>
<feColorMatrix type="matrix" values="0 0 0 0 0 0 0 0 0 0 0 0 0 0 0 0 0 0 0.12 0"/>
<feBlend mode="normal" in2="BackgroundImageFix" result="effect1_dropShadow_9_43"/>
<feColorMatrix in="SourceAlpha" type="matrix" values="0 0 0 0 0 0 0 0 0 0 0 0 0 0 0 0 0 0 127 0" result="hardAlpha"/>
<feOffset/>
<feGaussianBlur stdDeviation="0.5"/>
<feComposite in2="hardAlpha" operator="out"/>
<feColorMatrix type="matrix" values="0 0 0 0 0 0 0 0 0 0 0 0 0 0 0 0 0 0 0.16 0"/>
<feBlend mode="normal" in2="effect1_dropShadow_9_43" result="effect2_dropShadow_9_43"/>
<feBlend mode="normal" in="SourceGraphic" in2="effect2_dropShadow_9_43" result="shape"/>
</filter>
</defs>
</svg>
