<svg width="18" height="19" viewBox="0 0 18 19" fill="none" xmlns="http://www.w3.org/2000/svg">
<g filter="url(#filter0_dd_9_37)">
<path d="M9.33333 8.4V6C9.33333 5.81111 9.26944 5.65278 9.14167 5.525C9.01389 5.39722 8.85556 5.33333 8.66667 5.33333C8.47778 5.33333 8.31944 5.39722 8.19167 5.525C8.06389 5.65278 8 5.81111 8 6V8.65C8 8.73889 8.01667 8.825 8.05 8.90833C8.08333 8.99167 8.13333 9.06667 8.2 9.13333L10.4 11.3333C10.5222 11.4556 10.6778 11.5167 10.8667 11.5167C11.0556 11.5167 11.2111 11.4556 11.3333 11.3333C11.4556 11.2111 11.5167 11.0556 11.5167 10.8667C11.5167 10.6778 11.4556 10.5222 11.3333 10.4L9.33333 8.4ZM8.66667 15.3333C7.74444 15.3333 6.87778 15.1583 6.06667 14.8083C5.25556 14.4583 4.55 13.9833 3.95 13.3833C3.35 12.7833 2.875 12.0778 2.525 11.2667C2.175 10.4556 2 9.58889 2 8.66667C2 7.74444 2.175 6.87778 2.525 6.06667C2.875 5.25556 3.35 4.55 3.95 3.95C4.55 3.35 5.25556 2.875 6.06667 2.525C6.87778 2.175 7.74444 2 8.66667 2C9.58889 2 10.4556 2.175 11.2667 2.525C12.0778 2.875 12.7833 3.35 13.3833 3.95C13.9833 4.55 14.4583 5.25556 14.8083 6.06667C15.1583 6.87778 15.3333 7.74444 15.3333 8.66667C15.3333 9.58889 15.1583 10.4556 14.8083 11.2667C14.4583 12.0778 13.9833 12.7833 13.3833 13.3833C12.7833 13.9833 12.0778 14.4583 11.2667 14.8083C10.4556 15.1583 9.58889 15.3333 8.66667 15.3333Z" fill="#AD61F5"/>
<path d="M8.66699 1.5C9.65413 1.50004 10.5886 1.68733 11.4648 2.06543C12.3316 2.43942 13.0908 2.95017 13.7373 3.59668C14.3836 4.24305 14.8937 5.00172 15.2676 5.86816C15.6458 6.74458 15.833 7.67969 15.833 8.66699C15.833 9.65417 15.6457 10.5885 15.2676 11.4648C14.8936 12.3315 14.3838 13.0908 13.7373 13.7373C13.0908 14.3838 12.3315 14.8936 11.4648 15.2676C10.5885 15.6457 9.65417 15.833 8.66699 15.833C7.67969 15.833 6.74458 15.6458 5.86816 15.2676C5.00172 14.8937 4.24305 14.3836 3.59668 13.7373C2.95017 13.0908 2.43942 12.3316 2.06543 11.4648C1.68733 10.5886 1.50004 9.65413 1.5 8.66699C1.5 7.67969 1.68725 6.74458 2.06543 5.86816C2.43941 5.00152 2.95021 4.24315 3.59668 3.59668C4.24315 2.95021 5.00152 2.43941 5.86816 2.06543C6.74458 1.68725 7.67969 1.5 8.66699 1.5ZM8.66699 5.83301C8.60402 5.83301 8.5743 5.84952 8.54492 5.87891C8.51575 5.90818 8.5 5.93726 8.5 6V8.65039C8.50005 8.67489 8.50476 8.69793 8.51465 8.72266C8.52156 8.73988 8.53263 8.75818 8.55371 8.7793L10.7539 10.9795C10.7732 10.9987 10.7968 11.0165 10.8662 11.0166C10.936 11.0166 10.9602 10.9988 10.9795 10.9795C10.9988 10.9602 11.0166 10.936 11.0166 10.8662C11.0165 10.7968 10.9987 10.7732 10.9795 10.7539L8.83301 8.60742V6C8.83301 5.93714 8.81736 5.90823 8.78809 5.87891C8.75875 5.84958 8.72974 5.83306 8.66699 5.83301Z" stroke="white"/>
</g>
<defs>
<filter id="filter0_dd_9_37" x="0" y="0" width="17.3333" height="18.3334" filterUnits="userSpaceOnUse" color-interpolation-filters="sRGB">
<feFlood flood-opacity="0" result="BackgroundImageFix"/>
<feColorMatrix in="SourceAlpha" type="matrix" values="0 0 0 0 0 0 0 0 0 0 0 0 0 0 0 0 0 0 127 0" result="hardAlpha"/>
<feOffset dy="1"/>
<feGaussianBlur stdDeviation="0.5"/>
<feComposite in2="hardAlpha" operator="out"/>
<feColorMatrix type="matrix" values="0 0 0 0 0 0 0 0 0 0 0 0 0 0 0 0 0 0 0.12 0"/>
<feBlend mode="normal" in2="BackgroundImageFix" result="effect1_dropShadow_9_37"/>
<feColorMatrix in="SourceAlpha" type="matrix" values="0 0 0 0 0 0 0 0 0 0 0 0 0 0 0 0 0 0 127 0" result="hardAlpha"/>
<feOffset/>
<feGaussianBlur stdDeviation="0.5"/>
<feComposite in2="hardAlpha" operator="out"/>
<feColorMatrix type="matrix" values="0 0 0 0 0 0 0 0 0 0 0 0 0 0 0 0 0 0 0.16 0"/>
<feBlend mode="normal" in2="effect1_dropShadow_9_37" result="effect2_dropShadow_9_37"/>
<feBlend mode="normal" in="SourceGraphic" in2="effect2_dropShadow_9_37" result="shape"/>
</filter>
</defs>
</svg>
