<svg width="17" height="17" viewBox="0 0 17 17" fill="none" xmlns="http://www.w3.org/2000/svg">
<g filter="url(#filter0_dd_9_40)">
<path d="M3.33341 9.33342C3.14453 9.33342 2.98619 9.26953 2.85841 9.14175C2.73064 9.01397 2.66675 8.85564 2.66675 8.66675C2.66675 8.47786 2.73064 8.31953 2.85841 8.19175C2.98619 8.06397 3.14453 8.00008 3.33341 8.00008H6.66675C6.85564 8.00008 7.01397 8.06397 7.14175 8.19175C7.26953 8.31953 7.33341 8.47786 7.33341 8.66675C7.33341 8.85564 7.26953 9.01397 7.14175 9.14175C7.01397 9.26953 6.85564 9.33342 6.66675 9.33342H3.33341ZM3.33341 6.66675C3.14453 6.66675 2.98619 6.60286 2.85841 6.47508C2.73064 6.3473 2.66675 6.18897 2.66675 6.00008C2.66675 5.81119 2.73064 5.65286 2.85841 5.52508C2.98619 5.3973 3.14453 5.33341 3.33341 5.33341H9.33342C9.5223 5.33341 9.68064 5.3973 9.80842 5.52508C9.93619 5.65286 10.0001 5.81119 10.0001 6.00008C10.0001 6.18897 9.93619 6.3473 9.80842 6.47508C9.68064 6.60286 9.5223 6.66675 9.33342 6.66675H3.33341ZM3.33341 4.00008C3.14453 4.00008 2.98619 3.93619 2.85841 3.80841C2.73064 3.68064 2.66675 3.5223 2.66675 3.33341C2.66675 3.14453 2.73064 2.98619 2.85841 2.85841C2.98619 2.73064 3.14453 2.66675 3.33341 2.66675H9.33342C9.5223 2.66675 9.68064 2.73064 9.80842 2.85841C9.93619 2.98619 10.0001 3.14453 10.0001 3.33341C10.0001 3.5223 9.93619 3.68064 9.80842 3.80841C9.68064 3.93619 9.5223 4.00008 9.33342 4.00008H3.33341ZM8.66675 12.6667V11.5667C8.66675 11.4779 8.68342 11.3917 8.71675 11.3084C8.75008 11.2251 8.80008 11.1501 8.86675 11.0834L12.3501 7.61675C12.4501 7.51675 12.5612 7.44453 12.6834 7.40008C12.8056 7.35564 12.9279 7.33341 13.0501 7.33341C13.1834 7.33341 13.3112 7.35841 13.4334 7.40841C13.5556 7.45841 13.6667 7.53341 13.7667 7.63341L14.3834 8.25008C14.4723 8.35008 14.5417 8.46119 14.5917 8.58342C14.6417 8.70564 14.6667 8.82786 14.6667 8.95008C14.6667 9.0723 14.6445 9.1973 14.6001 9.32508C14.5556 9.45286 14.4834 9.56675 14.3834 9.66675L10.9167 13.1334C10.8501 13.2001 10.7751 13.2501 10.6917 13.2834C10.6084 13.3167 10.5223 13.3334 10.4334 13.3334H9.33342C9.14453 13.3334 8.98619 13.2695 8.85842 13.1417C8.73064 13.014 8.66675 12.8556 8.66675 12.6667ZM13.0501 9.60008L13.6667 8.95008L13.0501 8.33342L12.4167 8.96675L13.0501 9.60008ZM9.66675 12.3334H10.3001L12.3167 10.3001L12.0167 9.98342L11.7001 9.68342L9.66675 11.7001V12.3334ZM9.66675 12.3334V11.7001L11.7001 9.68342L12.3167 10.3001L10.3001 12.3334H9.66675Z" fill="#3A86D8"/>
<path d="M13.0505 6.83374C13.248 6.8338 13.44 6.87128 13.6228 6.94604C13.8106 7.0229 13.9764 7.13656 14.1199 7.28003L14.7371 7.89624L14.7478 7.90698L14.7576 7.91772C14.8835 8.05937 14.9828 8.2191 15.0544 8.39429C15.127 8.57165 15.1667 8.75783 15.1667 8.94995C15.1667 9.13367 15.1328 9.31409 15.072 9.48901C15.0017 9.69125 14.8879 9.86943 14.7371 10.0203L11.2703 13.4871C11.1582 13.5991 11.0269 13.6881 10.8777 13.7478C10.7359 13.8045 10.5865 13.8337 10.4333 13.8337H9.33374C9.01893 13.8337 8.73081 13.721 8.50464 13.4949C8.27868 13.2687 8.16675 12.9814 8.16675 12.6667V11.5671C8.16675 11.414 8.19597 11.2646 8.25269 11.1228C8.31242 10.9735 8.40137 10.8423 8.51343 10.7302L8.5144 10.7292L11.9978 7.26245C12.1446 7.11589 12.3162 7.0018 12.5125 6.93042C12.6859 6.86734 12.8664 6.83374 13.0505 6.83374ZM6.66675 7.49976C6.98155 7.49976 7.2687 7.61245 7.49487 7.83862C7.72105 8.0648 7.83374 8.35194 7.83374 8.66675C7.83374 8.98155 7.72105 9.2687 7.49487 9.49487C7.2687 9.72105 6.98155 9.83374 6.66675 9.83374H3.33374C3.01893 9.83374 2.73081 9.72105 2.50464 9.49487C2.27868 9.26875 2.16675 8.9814 2.16675 8.66675C2.16675 8.35209 2.27868 8.06475 2.50464 7.83862C2.73081 7.61245 3.01893 7.49976 3.33374 7.49976H6.66675ZM9.33374 4.83374C9.64842 4.83382 9.93577 4.94554 10.1619 5.17163C10.388 5.39773 10.4997 5.68508 10.4998 5.99976C10.4998 6.31456 10.388 6.60268 10.1619 6.82886C9.93579 7.05484 9.64834 7.16667 9.33374 7.16675H3.33374C3.01893 7.16675 2.73081 7.05503 2.50464 6.82886C2.27846 6.60268 2.16675 6.31456 2.16675 5.99976C2.16683 5.68515 2.27865 5.3977 2.50464 5.17163C2.73081 4.94546 3.01893 4.83374 3.33374 4.83374H9.33374ZM9.33374 2.16675C9.64834 2.16683 9.93579 2.27865 10.1619 2.50464C10.388 2.73081 10.4998 3.01893 10.4998 3.33374C10.4997 3.64842 10.388 3.93577 10.1619 4.16187C9.93577 4.38796 9.64842 4.49968 9.33374 4.49976H3.33374C3.01893 4.49976 2.73081 4.38804 2.50464 4.16187C2.27865 3.93579 2.16683 3.64834 2.16675 3.33374C2.16675 3.01893 2.27846 2.73081 2.50464 2.50464C2.73081 2.27846 3.01893 2.16675 3.33374 2.16675H9.33374Z" stroke="white"/>
</g>
<defs>
<filter id="filter0_dd_9_40" x="0.666748" y="0.666748" width="16" height="15.6666" filterUnits="userSpaceOnUse" color-interpolation-filters="sRGB">
<feFlood flood-opacity="0" result="BackgroundImageFix"/>
<feColorMatrix in="SourceAlpha" type="matrix" values="0 0 0 0 0 0 0 0 0 0 0 0 0 0 0 0 0 0 127 0" result="hardAlpha"/>
<feOffset dy="1"/>
<feGaussianBlur stdDeviation="0.5"/>
<feComposite in2="hardAlpha" operator="out"/>
<feColorMatrix type="matrix" values="0 0 0 0 0 0 0 0 0 0 0 0 0 0 0 0 0 0 0.12 0"/>
<feBlend mode="normal" in2="BackgroundImageFix" result="effect1_dropShadow_9_40"/>
<feColorMatrix in="SourceAlpha" type="matrix" values="0 0 0 0 0 0 0 0 0 0 0 0 0 0 0 0 0 0 127 0" result="hardAlpha"/>
<feOffset/>
<feGaussianBlur stdDeviation="0.5"/>
<feComposite in2="hardAlpha" operator="out"/>
<feColorMatrix type="matrix" values="0 0 0 0 0 0 0 0 0 0 0 0 0 0 0 0 0 0 0.16 0"/>
<feBlend mode="normal" in2="effect1_dropShadow_9_40" result="effect2_dropShadow_9_40"/>
<feBlend mode="normal" in="SourceGraphic" in2="effect2_dropShadow_9_40" result="shape"/>
</filter>
</defs>
</svg>
