<svg preserveAspectRatio="none" width="100%" height="100%" overflow="visible" style="display: block;" viewBox="0 0 16 16" fill="none" xmlns="http://www.w3.org/2000/svg">
<g id="bedtime_24dp_1F1F1F_FILL1_wght400_GRAD0_opsz24 1">
<path id="Vector" d="M8.0665 14.6667C7.13317 14.6667 6.25817 14.4889 5.4415 14.1334C4.62484 13.7778 3.91373 13.2972 3.30817 12.6917C2.70262 12.0861 2.22206 11.375 1.8665 10.5584C1.51095 9.74169 1.33317 8.86669 1.33317 7.93335C1.33317 6.51113 1.73317 5.22224 2.53317 4.06669C3.33317 2.91113 4.40539 2.10002 5.74984 1.63335C5.99428 1.54446 6.22206 1.57502 6.43317 1.72502C6.64428 1.87502 6.74428 2.0778 6.73317 2.33335C6.69984 3.2778 6.84984 4.1778 7.18317 5.03335C7.5165 5.88891 8.0165 6.65002 8.68317 7.31669C9.34984 7.98335 10.1109 8.48335 10.9665 8.81669C11.8221 9.15002 12.7221 9.30002 13.6665 9.26669C13.9554 9.25558 14.1693 9.3528 14.3082 9.55835C14.4471 9.76391 14.4721 9.99446 14.3832 10.25C13.8943 11.5834 13.0748 12.6528 11.9248 13.4584C10.7748 14.2639 9.48873 14.6667 8.0665 14.6667Z" fill="var(--fill-0, #363C5D)"/>
</g>
</svg>
