<svg width="16" height="16" viewBox="0 0 16 16" fill="none" xmlns="http://www.w3.org/2000/svg">
<path d="M10.6664 12.6667C10.2998 12.6667 9.98587 12.5361 9.72476 12.275C9.46365 12.0139 9.33309 11.7 9.33309 11.3333V4.66666C9.33309 4.29999 9.46365 3.98611 9.72476 3.72499C9.98587 3.46388 10.2998 3.33333 10.6664 3.33333C11.0331 3.33333 11.347 3.46388 11.6081 3.72499C11.8692 3.98611 11.9998 4.29999 11.9998 4.66666V11.3333C11.9998 11.7 11.8692 12.0139 11.6081 12.275C11.347 12.5361 11.0331 12.6667 10.6664 12.6667ZM5.33309 12.6667C4.96642 12.6667 4.65253 12.5361 4.39142 12.275C4.13031 12.0139 3.99976 11.7 3.99976 11.3333V4.66666C3.99976 4.29999 4.13031 3.98611 4.39142 3.72499C4.65253 3.46388 4.96642 3.33333 5.33309 3.33333C5.69976 3.33333 6.01364 3.46388 6.27476 3.72499C6.53587 3.98611 6.66642 4.29999 6.66642 4.66666V11.3333C6.66642 11.7 6.53587 12.0139 6.27476 12.275C6.01364 12.5361 5.69976 12.6667 5.33309 12.6667Z" fill="black"/>
</svg>
