<svg width="16" height="16" viewBox="0 0 16 16" fill="none" xmlns="http://www.w3.org/2000/svg">
<path d="M5.33325 11.45V4.55C5.33325 4.36111 5.39992 4.20278 5.53325 4.075C5.66659 3.94722 5.82214 3.88333 5.99992 3.88333C6.05547 3.88333 6.11381 3.89166 6.17492 3.90833C6.23603 3.925 6.29436 3.95 6.34992 3.98333L11.7833 7.43333C11.8833 7.5 11.9583 7.58333 12.0083 7.68333C12.0583 7.78333 12.0833 7.88889 12.0833 8C12.0833 8.11111 12.0583 8.21666 12.0083 8.31666C11.9583 8.41666 11.8833 8.5 11.7833 8.56666L6.34992 12.0167C6.29436 12.05 6.23603 12.075 6.17492 12.0917C6.11381 12.1083 6.05547 12.1167 5.99992 12.1167C5.82214 12.1167 5.66659 12.0528 5.53325 11.925C5.39992 11.7972 5.33325 11.6389 5.33325 11.45Z" fill="black"/>
</svg>
