<svg width="16" height="17" viewBox="0 0 16 17" fill="none" xmlns="http://www.w3.org/2000/svg">
<g filter="url(#filter0_dd_9_46)">
<path d="M8 10.6667C7.63333 10.6667 7.31944 10.5361 7.05833 10.275C6.79722 10.0139 6.66667 9.7 6.66667 9.33333C6.66667 8.96667 6.79722 8.65278 7.05833 8.39167C7.31944 8.13056 7.63333 8 8 8C8.36667 8 8.68056 8.13056 8.94167 8.39167C9.20278 8.65278 9.33333 8.96667 9.33333 9.33333C9.33333 9.7 9.20278 10.0139 8.94167 10.275C8.68056 10.5361 8.36667 10.6667 8 10.6667ZM4.91667 4.66667H11.0833L11.9333 2.96667C12.0444 2.74444 12.0361 2.52778 11.9083 2.31667C11.7806 2.10556 11.5889 2 11.3333 2L4.66667 2C4.41111 2 4.21944 2.10556 4.09167 2.31667C3.96389 2.52778 3.95556 2.74444 4.06667 2.96667L4.91667 4.66667ZM5.6 14H10.4C11.4 14 12.25 13.6528 12.95 12.9583C13.65 12.2639 14 11.4111 14 10.4C14 9.97778 13.9278 9.56667 13.7833 9.16667C13.6389 8.76667 13.4333 8.40556 13.1667 8.08333L11.4333 6H4.56667L2.83333 8.08333C2.56667 8.40556 2.36111 8.76667 2.21667 9.16667C2.07222 9.56667 2 9.97778 2 10.4C2 11.4111 2.34722 12.2639 3.04167 12.9583C3.73611 13.6528 4.58889 14 5.6 14Z" fill="#239D3C"/>
<path d="M11.668 5.5L11.8174 5.68066L13.5508 7.76367L13.5518 7.76465C13.8558 8.132 14.0902 8.54382 14.2539 8.99707C14.4178 9.45104 14.5 9.91994 14.5 10.4004C14.4999 11.5408 14.099 12.5226 13.3018 13.3135C12.5068 14.102 11.5299 14.4999 10.4004 14.5H5.59961C4.46044 14.4999 3.47965 14.1027 2.68848 13.3115C1.8973 12.5203 1.50009 11.5396 1.5 10.4004C1.5 9.91994 1.5822 9.45104 1.74609 8.99707C1.90977 8.54382 2.14423 8.132 2.44824 7.76465L2.44922 7.76367L4.18262 5.68066L4.33203 5.5H11.668ZM8 8.5C7.76707 8.5 7.58016 8.57714 7.41211 8.74512C7.2441 8.91313 7.16706 9.10016 7.16699 9.33301C7.16699 9.56601 7.24402 9.75378 7.41211 9.92188C7.58012 10.0897 7.76715 10.167 8 10.167C8.23285 10.167 8.41988 10.0897 8.58789 9.92188C8.75598 9.75378 8.83301 9.56601 8.83301 9.33301C8.83294 9.10016 8.7559 8.91313 8.58789 8.74512C8.41984 8.57714 8.23293 8.5 8 8.5ZM11.333 1.5C11.7558 1.5 12.1137 1.69056 12.3359 2.05762C12.5533 2.41678 12.5681 2.81597 12.3809 3.19043L11.5303 4.89062L11.3926 5.16699H4.60742L4.46973 4.89062L3.61914 3.19043C3.43191 2.81597 3.44667 2.41678 3.66406 2.05762C3.88631 1.69056 4.24417 1.5 4.66699 1.5L11.333 1.5Z" stroke="white"/>
</g>
<defs>
<filter id="filter0_dd_9_46" x="0" y="0" width="16" height="17" filterUnits="userSpaceOnUse" color-interpolation-filters="sRGB">
<feFlood flood-opacity="0" result="BackgroundImageFix"/>
<feColorMatrix in="SourceAlpha" type="matrix" values="0 0 0 0 0 0 0 0 0 0 0 0 0 0 0 0 0 0 127 0" result="hardAlpha"/>
<feOffset dy="1"/>
<feGaussianBlur stdDeviation="0.5"/>
<feComposite in2="hardAlpha" operator="out"/>
<feColorMatrix type="matrix" values="0 0 0 0 0 0 0 0 0 0 0 0 0 0 0 0 0 0 0.12 0"/>
<feBlend mode="normal" in2="BackgroundImageFix" result="effect1_dropShadow_9_46"/>
<feColorMatrix in="SourceAlpha" type="matrix" values="0 0 0 0 0 0 0 0 0 0 0 0 0 0 0 0 0 0 127 0" result="hardAlpha"/>
<feOffset/>
<feGaussianBlur stdDeviation="0.5"/>
<feComposite in2="hardAlpha" operator="out"/>
<feColorMatrix type="matrix" values="0 0 0 0 0 0 0 0 0 0 0 0 0 0 0 0 0 0 0.16 0"/>
<feBlend mode="normal" in2="effect1_dropShadow_9_46" result="effect2_dropShadow_9_46"/>
<feBlend mode="normal" in="SourceGraphic" in2="effect2_dropShadow_9_46" result="shape"/>
</filter>
</defs>
</svg>
